<?xml version="1.0" encoding="utf-8"?>
<!-- Generator: Adobe Illustrator 25.3.1, SVG Export Plug-In . SVG Version: 6.00 Build 0)  -->
<svg version="1.1" id="Layer_1" xmlns="http://www.w3.org/2000/svg" xmlns:xlink="http://www.w3.org/1999/xlink" x="0px" y="0px"
	 viewBox="0 0 377 96" enable-background="new 0 0 377 96" xml:space="preserve">
<g>
	<path fill="#FF612B" d="M29.59,23.92C13.02,23.92,0,36.43,0,52.09c0,15.66,13.02,28.17,29.59,28.17
		c16.58,0,29.59-12.51,29.59-28.17C59.19,36.43,46.17,23.92,29.59,23.92z M29.59,67.2c-8.17,0-14.72-6.45-14.72-15.11
		s6.55-15.11,14.72-15.11c8.17,0,14.72,6.45,14.72,15.11S37.76,67.2,29.59,67.2z M171.17,37.45h14.07v26.12
		c0,10.86-8.89,17-20.21,17s-20.21-6.14-20.21-17V37.45h14.07v25.73c0,3.7,2.51,6.06,6.14,6.06c3.64,0,6.14-2.36,6.14-6.06V37.45z
		 M255.5,52.48v27.15h-13.99v-25.1c0-4.09-2.67-6.53-5.9-6.53c-3.23,0-5.9,2.44-5.9,6.53v25.1h-13.99v-25.1
		c0-4.09-2.67-6.53-5.9-6.53c-3.23,0-5.9,2.44-5.9,6.53v25.1h-13.99V37.45h13.75l0.08,5.04c2.75-3.86,6.79-5.67,11.48-5.67
		c5.9,0,10.11,2.68,12.37,6.85c2.75-4.56,7.92-6.85,13.26-6.85C250.32,36.83,255.5,43.75,255.5,52.48z M90.88,36.83
		c-5.42,0-10.19,2.05-13.83,5.51l-0.08-4.88H63.39V96h14.07V75.23c3.56,3.23,8.25,5.11,13.42,5.11c11.72,0,20.94-9.68,20.94-21.8
		C111.82,46.5,102.6,36.83,90.88,36.83z M87.64,69.09c-5.66,0-10.19-4.49-10.19-10.54c0-5.98,4.53-10.47,10.19-10.47
		c5.58,0,10.11,4.49,10.11,10.47C97.75,64.6,93.22,69.09,87.64,69.09z M129.45,37.45h11.56v10.86h-11.56v15.11
		c0,3.86,2.51,5.51,6.23,5.51c1.54,0,3.32-0.24,5.34-0.87v10.78c-2.75,1.1-5.9,1.42-8.89,1.42c-10.27,0-16.66-5.27-16.66-15.74
		V26.67h13.99V37.45z"/>
	<g>
		<path fill="#6F625A" d="M278.35,79.72V24.67h20.29c10.15,0,16.91,6.21,16.91,15.26c0,6.92-4.8,12.66-11.95,14.78l15.73,25.01
			h-7.31L296.99,55.5h-12.35v24.22H278.35z M298.01,30.02h-13.37v20.21h13.05c7.86,0,11.56-4.8,11.56-10.14
			C309.26,34.27,305.25,30.02,298.01,30.02z"/>
		<path fill="#6F625A" d="M318.77,79.72l16.12-21.31l-14.63-19.27h7.31l10.93,14.71l11.01-14.71h6.92l-14.47,19.03l16.28,21.55
			h-7.31l-12.58-17.07l-12.74,17.07H318.77z"/>
		<path fill="#6F625A" d="M368.78,53.58c-4.52,0-8.17-3.61-8.17-8.26s3.65-8.26,8.17-8.26s8.22,3.61,8.22,8.26
			S373.31,53.58,368.78,53.58z M368.78,51.97c3.65,0,6.47-2.82,6.47-6.64c0-3.82-2.82-6.64-6.47-6.64c-3.61,0-6.39,2.82-6.39,6.64
			C362.39,49.14,365.17,51.97,368.78,51.97z M365.84,49.19v-7.8h3.48c1.41,0,2.45,0.83,2.45,2.28c0,0.87-0.54,1.62-1.37,2.08
			l2.03,3.44h-1.87l-1.78-3.11h-1.24v3.11H365.84z M369.03,42.67h-1.49v2.12h1.41c0.79,0,1.16-0.5,1.16-1.04
			C370.11,43.13,369.74,42.67,369.03,42.67z"/>
	</g>
</g>
</svg>
